PathFileType	4	(X/Y/Z)	path1_17_0-570.trc
DataRate	CameraRate	NumFrames	NumMarkers	Units	OrigDataRate	OrigDataStartFrame	OrigNumFrames
30	30	7	22	m	30	285	570
Frame#	Time	Hip			RHip			RKnee			RAnkle			RBigToe			RSmallToe			RHeel			LHip			LKnee			LAnkle			LBigToe			LSmallToe			LHeel			Neck			Head			Nose			RShoulder			RElbow			RWrist			LShoulder			LElbow			LWrist		
		X1	Y1	Z1	X2	Y2	Z2	X3	Y3	Z3	X4	Y4	Z4	X5	Y5	Z5	X6	Y6	Z6	X7	Y7	Z7	X8	Y8	Z8	X9	Y9	Z9	X10	Y10	Z10	X11	Y11	Z11	X12	Y12	Z12	X13	Y13	Z13	X14	Y14	Z14	X15	Y15	Z15	X16	Y16	Z16	X17	Y17	Z17	X18	Y18	Z18	X19	Y19	Z19	X20	Y20	Z20	X21	Y21	Z21	X22	Y22	Z22
286	9.533333333333331	2.5004303668014334	0.8358365582430324	0.6211223672594092	2.5027567541781366	0.7971613775072041	0.5439998322391959	2.4815203195757576	0.46503641981979144	0.5474699014297207	2.552764998925115	0.09554505404226457	0.5809525207729631	2.3544941450870795	0.01668924666887072	0.5582665287564712	2.389385178774513	0.023181576019429277	0.4966765422230706	2.5986165751431405	0.03278516308295285	0.5768281913878447	2.493257216742551	0.7955683445435924	0.7046211088621647	2.4950252187642588	0.4422148366030375	0.7019777374216689	2.532860152702527	0.11175214961406642	0.6850575316824239	2.373418170443247	0.014955687108133046	0.6874456740262664	2.4063849301864084	0.0252804273536647	0.7471504888521457	2.578019309596207	0.040924239719884695	0.682905878725666	2.467770443255579	1.472818104420527	0.6381216785663253	2.440193040871264	1.715946079159304	0.5746972694963716	2.333862765511709	1.6111632124058672	0.6053839972959809	2.5153061065524156	1.3663692747116374	0.46453996416614024	2.5017818720775367	1.069815707477773	0.4164856778960929	2.4588039830380186	0.8426453563218977	0.4095473032337297	2.4888291630702453	1.3484470914247328	0.7704040406707554	2.4847503944542897	1.0663838142717863	0.8320322612759645	2.4592034538406984	0.8324501778949621	0.8360241499690199
287	9.566666666666666	2.500555318999125	0.8360574285724887	0.6214099202435616	2.5029575060706826	0.7974950667945203	0.5441830094160425	2.479234310067707	0.4659303719055524	0.5449097042525424	2.552875505864959	0.09574892624689726	0.580939610019662	2.354310848878643	0.016860307013256522	0.5582441829057573	2.3894449083775657	0.02317914305764828	0.4967827194373595	2.59914764722719	0.03247732102072067	0.5771505089549319	2.4934108566961086	0.7959732938192693	0.7046361783122314	2.4956879482343464	0.4427260185104313	0.7042802687919538	2.5363331009152428	0.10999341482688942	0.6883103713501675	2.374252588863206	0.01333259892159057	0.6861708952513021	2.406651039888446	0.02514420643065098	0.7471484045090178	2.5823505280708443	0.03967956336802262	0.6853461854570025	2.46796023576665	1.4728406306223953	0.6382639832366893	2.4406427816654985	1.7163161168043364	0.5738027857011657	2.3341459576268324	1.6108790439385952	0.6058440076114593	2.5154321161392676	1.3663287410296752	0.4645689802496485	2.502091783093741	1.069821615683581	0.4171141092787199	2.458931116784042	0.8427161533746125	0.40923348272097315	2.4890887862442366	1.3487302654189626	0.7708823170776886	2.4848412408748017	1.066174929116091	0.8321371770377237	2.459261860198136	0.8323175237741358	0.8362627016733838
288	9.6	2.500711274304382	0.8362607766639679	0.6215283926180337	2.502937668703855	0.7977353399190599	0.5438434460507295	2.4771633163617564	0.46685126406852473	0.5425371822610267	2.5528576966313565	0.09623934897821106	0.5804826951853702	2.3543879247843402	0.01684920856319453	0.5579925288144268	2.389671276353847	0.023254348705609225	0.4966510373139832	2.599545213595254	0.03235704571619586	0.5770097226389748	2.4935230907150037	0.7960768102903808	0.704185622534626	2.4962649587489554	0.4431082187889896	0.7046595445348216	2.538688920490216	0.10875498117779908	0.6905823727068879	2.375216353369291	0.011641754740903664	0.6849248205645071	2.4072004355010597	0.0250578629725209	0.7470960836895212	2.5855070125336854	0.038843538970991236	0.6870887243137693	2.4680847283491403	1.472934554566394	0.6383763083981959	2.44076253394015	1.716126968127262	0.5753940416520431	2.334368742943991	1.6105413570807376	0.606511559105294	2.5154150885765336	1.3662863553480316	0.4643812041906325	2.501902885176566	1.070052680239675	0.41729435730516246	2.459240688979522	0.843134445074403	0.40909595927092646	2.4890975173865226	1.3489850834896473	0.7714505876805317	2.4849354981486558	1.0659941197160927	0.832299041310362	2.4594937079615518	0.8322967370543293	0.8366719295824105
289	9.633333333333333	2.5009876754369107	0.8363758644225217	0.6214954401644532	2.5027005461024	0.7979200282239542	0.542998599265099	2.4757663287643394	0.46764108290658585	0.540892148050549	2.552527836962771	0.09704679891239933	0.5794672803280131	2.3546546170834843	0.016568887093245877	0.5575766165977339	2.389923251552308	0.02327850199831892	0.49634711144362587	2.599712170278692	0.03243645845665548	0.5763001747815131	2.4936363542243623	0.7958713739184119	0.7033343254301276	2.496590458235981	0.4431362856470341	0.7025254698630169	2.5384998968289385	0.10884309159031266	0.6907118170367889	2.376125030605414	0.010282497309941508	0.684049165045166	2.4079831961070823	0.024998719556613563	0.7470374376384852	2.5856015455742485	0.03899130013757123	0.6871471072933951	2.4681262337976038	1.473093104939655	0.6384885770250959	2.4406747264421096	1.7154427876537062	0.5789775387495449	2.334580567183622	1.6103111825327412	0.607510105385684	2.5152347449345793	1.3663013939589592	0.4640127140341696	2.5007341377870014	1.0706135002885198	0.41627137933348896	2.4595716543309583	0.8437840337937502	0.4091721428492583	2.4889249684320958	1.349116913607075	0.7720694008729614	2.485113017291736	1.0658957620284464	0.8325343876638498	2.459878606239605	0.8324120642617449	0.8372015274039806
290	9.666666666666666	2.5014726454505136	0.8364075703636812	0.6214080420399247	2.5023893993896635	0.7982012853429522	0.5418684824144465	2.475051424203341	0.4682585697200793	0.5399969540792631	2.5517067973261116	0.09813579241131867	0.5778415405703458	2.354889064870276	0.016187574466128965	0.557149466097544	2.390046085955455	0.023206980833745693	0.49603317963718535	2.5994919950570603	0.032681776151259403	0.5750429447995338	2.4937509313848896	0.7955736073725589	0.7023321433645626	2.4966457997084506	0.44287167022414525	0.6982237587390867	2.5359020730538653	0.11024424683320362	0.6887339055841472	2.376911256338258	0.00943427310855918	0.6836282517716431	2.4088666307180646	0.02493859580637184	0.747036377118225	2.5826331684562898	0.040052365011873155	0.6855104440847836	2.468126677736625	1.4732859384748045	0.6386534388190395	2.4405100616853055	1.7146717390242219	0.5831993835663254	2.334826301895615	1.6102506098693614	0.6088036408028276	2.514984521340226	1.3664500815865799	0.4635973269031389	2.498932540553622	1.0713655288857045	0.4144544357242993	2.459806447141931	0.8444740957822711	0.409451155128431	2.4886994520310584	1.3491106323513662	0.7726301783506371	2.4854142418053615	1.065911921748179	0.8328411375145538	2.4603090160877623	0.8326241535728087	0.8377502405355737
291	9.7	2.5021467328298903	0.8363949898372446	0.6213497901928449	2.5021354132916795	0.7986774818564176	0.5407264545453914	2.4748805700883993	0.4686891820415956	0.5396506218601949	2.550365530685789	0.0993871306553773	0.5757146543645923	2.354898008216899	0.015879505750112627	0.5568921193365514	2.3899885274660724	0.0231153299705294	0.49586886079734716	2.598807966779291	0.03303940996018011	0.5735006703103075	2.4938476124356694	0.7953898976252126	0.7014560499042989	2.4966201567769306	0.4425517465840699	0.6930433279911583	2.5324406910276775	0.1121417218552403	0.6858350273379068	2.3775590456719473	0.00907366017059286	0.6835675581066976	2.409731484070611	0.0248682256331073	0.7471502980062676	2.578411017048687	0.04141194650321567	0.6831614677210066	2.468145752870061	1.4734559622731092	0.6388953814870585	2.4403715308973233	1.7143212763971958	0.5861404302793191	2.335095295383029	1.6103050386671334	0.6101054033656417	2.5148134176687074	1.366726231303022	0.46325500651630386	2.4972920693085308	1.07206441791397	0.4127951465936126	2.4599394447657867	0.8450640653675561	0.40987434763968106	2.4885059823733457	1.3489890198423446	0.7730055330386385	2.485796045368941	1.0660421726564315	0.8331870176849556	2.460672554626099	0.8328403084788928	0.8382500201101728
292	9.733333333333333	2.5028843376169068	0.8363685321750403	0.6213496394980261	2.5019644338262155	0.7993002433611326	0.5397511738982517	2.475079974652798	0.4689477957024559	0.5396029004860909	2.5488392083514686	0.10049513992375	0.5735922807483848	2.3546247304601846	0.015729045481779363	0.5568697389969894	2.3898120737734105	0.023066081998368043	0.4959108974242199	2.5978498381038024	0.03343053888405822	0.5722352015035762	2.4939181050270176	0.7953577701549932	0.7008476224907462	2.496708795943184	0.4423379867480446	0.688268769762952	2.5295303716091864	0.11373391681929038	0.6832201983542642	2.377962178841581	0.009263561017222309	0.6839108399713756	2.410512443959959	0.02477161153660807	0.7473776770697862	2.5747277317215618	0.0425248395757377	0.6811340314481138	2.4681912901716045	1.4735470744268049	0.6391547075390506	2.4402757748142725	1.7144710715548603	0.5870549916644725	2.335358223221958	1.610350447669524	0.61106093822968	2.5148162030744063	1.3670563064404369	0.4630267540232817	2.4963133757342804	1.0725787671178768	0.41180243232293073	2.4600162362713562	0.8455123259287464	0.41034108647898454	2.4883151446354486	1.3487914633904465	0.77312906863545	2.4861469291973224	1.066262212164719	0.8335228027041341	2.4609193465909014	0.8329726052313193	0.8386969076530115
